<?xml version="1.0" standalone="no"?>
<!DOCTYPE svg PUBLIC "-//W3C//DTD SVG 20010904//EN"
 "http://www.w3.org/TR/2001/REC-SVG-20010904/DTD/svg10.dtd">
<svg version="1.0" xmlns="http://www.w3.org/2000/svg"
 width="1024.000000pt" height="1024.000000pt" viewBox="0 0 1024.000000 1024.000000"
 preserveAspectRatio="xMidYMid meet">

<g transform="translate(0.000000,1024.000000) scale(0.100000,-0.100000)"
fill="#000000" stroke="none">
<path d="M4553 9535 c-29 -28 -53 -59 -53 -69 0 -16 5 -15 45 8 l45 27 0 -146
c0 -138 1 -145 20 -145 19 0 20 7 20 190 0 146 -3 190 -12 188 -7 -1 -37 -25
-65 -53z"/>
<path d="M4740 9560 c0 -18 7 -20 85 -20 47 0 85 -3 85 -6 0 -3 -9 -19 -20
-34 -28 -40 -77 -158 -85 -205 -3 -22 -8 -50 -11 -62 -4 -19 0 -23 20 -23 21
0 25 6 31 47 9 65 48 163 90 233 55 90 54 90 -80 90 -108 0 -115 -1 -115 -20z"/>
<path d="M5098 9476 c-16 -8 -28 -11 -28 -5 0 5 -11 9 -25 9 l-25 0 0 -135 0
-135 25 0 c25 0 25 0 25 93 0 107 13 137 59 137 37 0 41 -12 41 -131 0 -99 0
-99 25 -99 25 0 25 0 25 96 0 109 9 134 48 134 46 0 52 -15 52 -127 0 -96 1
-103 20 -103 11 0 20 6 21 13 2 48 -3 221 -7 231 -6 16 -48 36 -73 36 -10 0
-29 -8 -42 -19 -22 -18 -24 -18 -53 0 -37 23 -52 23 -88 5z"/>
<path d="M5498 9476 c-16 -8 -28 -11 -28 -5 0 5 -11 9 -25 9 l-25 0 0 -135 0
-135 25 0 c25 0 25 0 25 98 0 109 11 132 62 132 34 0 38 -14 38 -131 0 -99 0
-99 25 -99 25 0 25 0 25 96 0 109 9 134 48 134 46 0 52 -15 52 -127 l0 -103
26 0 26 0 -3 115 c-4 101 -7 117 -25 136 -28 27 -86 30 -114 4 -18 -17 -22
-17 -37 -2 -27 24 -65 29 -95 13z"/>
<path d="M3450 8775 l0 -545 -567 0 c-313 0 -574 0 -580 0 -7 0 -13 -4 -13
-10 0 -6 45 -10 115 -10 97 0 115 -2 115 -15 0 -9 -20 -96 -45 -195 -25 -99
-45 -182 -45 -185 0 -3 20 -5 45 -5 l45 0 0 -2835 0 -2835 -45 0 c-25 0 -45
-5 -45 -11 0 -5 20 -88 45 -183 25 -96 45 -181 45 -190 0 -14 -16 -16 -116
-16 -88 0 -115 -3 -111 -12 3 -10 197 -13 923 -14 505 0 924 -1 931 -2 9 -2
12 -43 12 -159 -1 -842 2 -1173 11 -1173 6 0 10 45 10 115 0 73 4 115 10 115
6 0 91 -20 190 -45 99 -25 182 -45 185 -45 3 0 5 20 5 45 l0 45 550 0 550 0 0
-45 c0 -25 5 -45 10 -45 6 0 88 20 183 45 95 25 178 45 185 45 9 0 12 -32 12
-115 0 -89 3 -115 13 -115 11 0 15 280 20 1622 4 892 7 1971 7 2399 l0 777 83
68 c358 295 574 703 616 1164 6 63 11 121 11 128 0 9 40 12 165 12 103 0 165
4 165 10 0 6 -61 10 -164 10 l-164 0 -7 48 c-4 26 -9 644 -11 1375 -4 1178 -7
1327 -20 1327 -13 0 -15 -18 -12 -120 3 -108 1 -120 -14 -120 -10 0 -68 14
-130 31 -173 47 -218 59 -228 59 -6 0 -10 -20 -10 -45 l0 -45 -1260 0 -1260 0
0 45 c0 25 -3 45 -7 45 -5 0 -82 -20 -172 -45 -91 -25 -173 -45 -183 -45 -16
0 -18 11 -18 120 0 100 -2 120 -15 120 -13 0 -15 -67 -15 -545z m227 235 c89
-22 167 -40 173 -40 5 0 10 18 10 40 l0 40 1260 0 1260 0 0 -40 c0 -25 5 -40
13 -40 6 0 91 20 187 45 96 24 175 43 177 41 6 -6 8 -2084 2 -2080 -4 2 -10
21 -14 41 -19 105 -118 326 -209 467 -109 168 -249 318 -417 443 -227 169
-510 279 -804 313 -50 5 -111 10 -137 10 l-48 0 0 175 c0 110 -4 175 -10 175
-6 0 -10 -64 -10 -173 l0 -173 -157 -12 c-103 -8 -387 -12 -815 -12 l-658 0 0
416 c0 391 1 415 18 410 9 -3 90 -23 179 -46z m-228 -1522 c-1 -398 -4 -766
-8 -818 l-6 -95 -167 -3 c-98 -1 -168 -6 -168 -12 0 -6 70 -11 168 -12 l167
-3 7 -111 c21 -332 152 -664 368 -933 80 -100 199 -218 283 -281 l46 -35 5
-1335 c2 -734 7 -1509 10 -1722 l5 -388 -810 0 c-767 0 -810 1 -805 18 3 9 24
91 46 182 22 91 43 173 46 183 5 15 -2 17 -46 17 -49 0 -52 1 -46 23 3 12 6
1287 6 2834 l0 2812 43 3 43 3 -41 170 c-23 94 -44 182 -48 198 l-7 27 455 0
455 0 -1 -722z m1206 698 c-553 -159 -987 -590 -1150 -1141 l-24 -80 0 623 -1
622 628 -1 627 0 -80 -23z m455 -236 c0 -153 4 -240 10 -240 6 0 10 87 10 241
l0 241 98 -7 c723 -51 1319 -562 1476 -1265 25 -112 50 -326 40 -342 -3 -4
-151 -8 -330 -8 -209 0 -324 -4 -324 -10 0 -6 117 -10 331 -10 l331 0 -7 -77
c-42 -503 -269 -927 -650 -1218 l-50 -38 -5 -1351 -5 -1351 -22 -71 c-53 -171
-133 -306 -246 -417 -158 -154 -350 -244 -562 -263 l-76 -7 1 454 c0 250 0
460 0 467 0 6 -4 12 -10 12 -7 0 -10 -162 -10 -466 l0 -467 -68 6 c-154 15
-330 80 -456 171 -71 51 -178 160 -225 229 -47 69 -106 198 -133 292 l-23 80
-5 1341 -5 1341 -75 60 c-156 125 -322 321 -418 495 -116 209 -202 516 -202
718 l0 60 325 0 c210 0 325 4 325 10 0 6 -115 10 -325 10 l-325 0 0 61 c0 34
7 109 16 167 88 596 502 1101 1060 1295 160 56 344 92 487 96 l47 1 0 -240z
m-780 -5850 c60 -81 156 -173 240 -230 63 -43 195 -110 217 -110 6 0 15 -4 18
-10 4 -7 -102 -10 -309 -10 l-316 0 0 318 1 317 49 -103 c27 -57 72 -135 100
-172z m1727 -1467 c-2 -2 -90 19 -195 46 l-192 49 0 -49 0 -49 -550 0 -550 0
0 49 0 49 -172 -45 c-95 -25 -183 -48 -196 -50 l-22 -5 2 543 3 544 330 2
c186 1 388 -3 463 -9 l132 -12 0 -173 c0 -106 4 -173 10 -173 6 0 11 69 12
173 l3 172 79 7 c258 24 509 159 671 360 64 81 129 195 156 273 12 35 14 -77
17 -829 1 -478 1 -871 -1 -873z"/>
<path d="M5110 7480 c0 -53 4 -90 10 -90 6 0 10 37 10 90 0 53 -4 90 -10 90
-6 0 -10 -37 -10 -90z"/>
<path d="M5108 6913 l-3 -338 -252 -3 c-154 -1 -253 -6 -253 -12 0 -6 99 -11
253 -12 l252 -3 3 -177 c1 -105 6 -178 12 -178 6 0 11 73 12 178 l3 177 258 3
c157 1 257 6 257 12 0 6 -100 11 -257 12 l-258 3 -3 338 c-1 210 -6 337 -12
337 -6 0 -11 -127 -12 -337z"/>
<path d="M4290 6560 c0 -6 35 -10 85 -10 50 0 85 4 85 10 0 6 -35 10 -85 10
-50 0 -85 -4 -85 -10z"/>
<path d="M5780 6560 c0 -6 35 -10 84 -10 47 0 88 5 91 10 4 6 -27 10 -84 10
-54 0 -91 -4 -91 -10z"/>
<path d="M5110 5960 c0 -53 4 -90 10 -90 6 0 10 37 10 90 0 53 -4 90 -10 90
-6 0 -10 -37 -10 -90z"/>
<path d="M5110 5205 c0 -343 3 -525 10 -525 7 0 10 182 10 525 0 343 -3 525
-10 525 -7 0 -10 -182 -10 -525z"/>
<path d="M5110 4450 c0 -108 17 -121 22 -16 3 83 1 106 -13 106 -5 0 -9 -40
-9 -90z"/>
<path d="M5110 3685 c0 -322 4 -535 9 -535 5 0 11 8 13 17 8 44 -3 1053 -12
1053 -6 0 -10 -191 -10 -535z"/>
<path d="M5110 2921 c0 -50 4 -91 9 -91 13 0 17 27 17 104 -1 46 -5 71 -13 74
-10 3 -13 -19 -13 -87z"/>
<path d="M4558 1096 c-32 -29 -58 -60 -58 -70 0 -22 9 -20 53 9 l37 26 0 -146
c0 -138 1 -145 20 -145 19 0 20 7 20 190 0 105 -3 190 -7 190 -5 -1 -34 -25
-65 -54z"/>
<path d="M4804 1132 c-45 -29 -59 -72 -59 -182 0 -111 17 -153 69 -175 53 -22
101 -4 128 48 28 54 32 205 6 252 -36 67 -92 89 -144 57z m82 -46 c26 -21 28
-30 32 -112 6 -134 -26 -192 -90 -160 -60 30 -57 265 4 289 22 9 26 8 54 -17z"/>
<path d="M5087 1030 c-22 -18 -27 -19 -27 -6 0 9 -8 16 -20 16 -19 0 -20 -7
-20 -135 l0 -135 25 0 25 0 0 100 c0 87 3 103 20 120 52 52 80 8 80 -122 0
-91 1 -98 20 -98 19 0 20 7 20 94 0 79 3 97 21 120 22 28 50 34 68 13 6 -7 12
-60 15 -118 4 -96 6 -104 25 -107 20 -3 21 1 21 102 0 124 -7 148 -51 166 -29
12 -36 12 -70 -7 -31 -17 -39 -18 -51 -7 -25 26 -71 27 -101 4z"/>
<path d="M5488 1035 c-16 -9 -28 -11 -28 -5 0 5 -9 10 -20 10 -19 0 -20 -7
-20 -135 0 -126 1 -135 19 -135 17 0 19 10 23 101 3 91 6 103 27 120 28 23 32
23 57 5 16 -12 19 -29 22 -120 4 -96 6 -106 23 -106 17 0 19 8 19 98 0 85 3
101 20 120 25 26 43 28 64 6 13 -12 16 -38 16 -120 l0 -104 25 0 c25 0 25 0
25 99 0 116 -11 155 -49 171 -31 13 -74 5 -92 -16 -10 -13 -14 -12 -29 1 -25
23 -71 27 -102 10z"/>
<path d="M2136 5639 c-32 -25 -34 -66 -6 -101 19 -25 19 -26 0 -43 -24 -22
-27 -77 -5 -95 18 -15 20 -31 3 -27 -6 1 -14 -6 -16 -15 -3 -16 8 -18 132 -18
129 0 136 1 136 20 0 19 -7 20 -95 20 -82 0 -98 3 -115 20 -25 25 -25 42 -2
63 15 13 39 17 115 17 90 0 97 1 97 20 0 18 -7 20 -86 20 -100 0 -143 17 -144
57 0 33 31 43 131 43 92 0 99 1 99 20 0 19 -7 20 -109 20 -94 0 -112 -3 -135
-21z"/>
<path d="M2132 5247 c-27 -29 -28 -67 -3 -98 19 -23 19 -24 0 -48 -23 -29 -25
-74 -4 -91 20 -16 19 -31 -1 -23 -12 4 -15 0 -12 -18 3 -24 4 -24 136 -27
l132 -3 0 25 0 26 -93 0 c-99 0 -137 14 -137 50 0 36 38 50 137 50 86 0 93 1
93 20 0 18 -7 20 -84 20 -102 0 -133 10 -142 46 -11 43 14 54 128 54 91 0 98
1 98 20 0 19 -7 20 -113 20 -106 0 -115 -2 -135 -23z"/>
<path d="M2203 4866 l-27 -24 -28 21 c-24 18 -32 19 -67 8 -22 -6 -47 -21 -56
-34 -17 -25 -20 -79 -5 -108 10 -19 59 -49 80 -49 19 0 10 39 -12 51 -68 36
-38 114 37 95 18 -5 27 -15 32 -36 8 -41 47 -43 50 -3 1 33 27 53 68 53 33 0
75 -34 75 -61 0 -18 -41 -59 -58 -59 -7 0 -12 -11 -12 -25 0 -29 0 -29 44 -11
62 26 83 85 51 146 -31 60 -121 79 -172 36z"/>
<path d="M2203 4606 l-28 -24 -25 20 c-31 25 -82 19 -116 -13 -26 -24 -33 -84
-14 -120 10 -19 59 -49 80 -49 21 0 10 41 -15 52 -29 13 -43 53 -28 77 12 20
69 27 89 10 8 -6 14 -22 14 -35 0 -19 5 -24 25 -24 18 0 23 4 19 15 -9 22 21
62 50 67 34 7 83 -16 91 -42 8 -25 -16 -66 -45 -75 -28 -9 -27 -45 3 -45 44 1
87 54 87 107 0 84 -121 135 -187 79z"/>
</g>
</svg>
